<?xml version="1.0" encoding="UTF-8"?>
<svg width="24px" height="24px" viewBox="0 0 24 24" version="1.1" xmlns="http://www.w3.org/2000/svg" xmlns:xlink="http://www.w3.org/1999/xlink">
    <title>阅读数@2x</title>
    <g id="阅读数" stroke="none" stroke-width="1" fill="none" fill-rule="evenodd">
        <g id="编组-11" transform="translate(2.000000, 2.000000)">
            <rect id="矩形备份" x="0" y="0" width="20" height="20"></rect>
            <g id="编组" transform="translate(2.000000, 4.000000)" fill="#999999" fill-rule="nonzero">
                <path d="M7.96548685,0.00827230811 C3.59065636,0.00827230811 0.0111879577,4.12272851 0.0111879577,5.49389748 C0.0111879577,7.32295905 3.59065636,10.9797261 7.96548685,10.9797261 C12.3399783,10.9797261 15.9204638,6.86594793 15.9204638,5.49389748 C15.9204638,4.12272851 12.3399783,0.00827230811 7.96548685,0.00827230811 Z M7.96548685,10.0657716 C4.07668836,10.0657716 0.895375644,6.40832655 0.895375644,5.49396528 C0.895375644,4.57960401 4.07662056,0.922836995 7.96548685,0.922836995 C11.8544887,0.922836995 15.0359371,4.57960401 15.0359371,5.49396528 C15.0359371,6.40832655 11.8544887,10.0657716 7.96548685,10.0657716 Z M7.96548685,8.46487659 C6.37408462,8.46487659 5.0934364,7.13961215 5.0934364,5.49396528 C5.0934364,3.8481828 6.37408462,2.52257933 7.96548685,2.52257933 C9.55655004,2.52257933 10.8377407,3.8481828 10.8377407,5.49396528 C10.8377407,7.13961215 9.55655004,8.46487659 7.96548685,8.46487659 Z M7.96548685,3.43707621 C6.86059127,3.43707621 5.97728506,4.35157309 5.97728506,5.49396528 C5.97728506,6.63717114 6.86059127,7.55119338 7.96548685,7.55119338 C9.07038242,7.55119338 9.95355302,6.63717114 9.95355302,5.49396528 C9.95355302,4.35157309 9.07038242,3.43707621 7.96548685,3.43707621 Z" id="形状"></path>
            </g>
        </g>
    </g>
</svg>